<?xml version="1.0" encoding="utf-8"?>
<!-- Generator: Adobe Illustrator 19.0.0, SVG Export Plug-In . SVG Version: 6.00 Build 0)  -->
<svg version="1.1" id="layer" xmlns="http://www.w3.org/2000/svg" xmlns:xlink="http://www.w3.org/1999/xlink" x="0px" y="0px"
	 viewBox="-153 -46 652 652" style="enable-background:new -153 -46 652 652;" xml:space="preserve">
<style type="text/css">
	.st0{fill:#B84632;}
	.st1{fill:#FFFFFF;}
</style>
<rect id="XMLID_86_" x="-126.1" y="140.1" class="st0" width="176.4" height="279.2"/>
<path id="XMLID_32_" class="st1" d="M-31.2,341.5c19.2,0,34.9,4.2,34.9,10c0,5.7-15.6,10-34.8,10c-19.2,0-34.6-4.2-34.6-10
	C-65.6,345.7-50.3,341.5-31.2,341.5 M-96.5,372.1c0,0-8.4,0.8-8.4,9.3c0,7.4,7.9,8.5,7.9,8.5H17.6c0,0,7.7-0.6,7.7-9
	c0-8.4-8.5-8.8-8.5-8.8H-96.5 M-43.2,300.5c-1.3,0.9-2.9,2.4-1.6,4.6c1.7,3,2.8,2.4,6.2,1.1c7.6-2.9,13.1-1.9,16.9-1.9
	c3.8,0,11.4,2.4,12.5,3.8c1.1,1.4,2.2,2.4,1.3,5.4c-1,3-3.6,3.5-3.6,3.5c-1.6,1.8-13.7,2.5-16.6,2.2c-1.7-0.2-3.5,2.1-3.5,3.8
	c0,1.7,1.6,3.3,3,3.3c16.3,0.3,20.4-3,20.4-3s6.8-1.3,7.6-9.8c0.8-8.5-5.7-12-5.7-12V184.2h-13V164c0,0,0-3.5-4.3-3.5
	c-4.3,0-4.3,4.1-4.3,4.1v19.5H-35c0,0-4.9,1.2-4.9,6.4c0,5.2,5.6,5.6,5.6,5.6l17.1,0v101.7h-0.5C-34.7,295.5-43.2,300.5-43.2,300.5
	 M-64.5,286.3c6.3-18,18.8-40.3,18.8-40.3v-23.6c-1.7,2.2-15.6,27.6-26.9,52c-12,26.1-16.8,54.2-16.8,54.2s-2.2,16.3-1.9,20.6
	c0.3,4.3,0.9,12,2.4,16.4c1.4,4.4,3,7.7,3,7.7l14.5,0.8c0,0-6-5.5-7.4-17.9c-1.4-11.7-0.1-21.2,2.5-33c2.2-9.8,5.4-19.3,6.6-23.2
	C-68.3,296.1-64.5,286.3-64.5,286.3"/>
<path id="XMLID_1_" d="M98.9,247.3c-2,4.9-2.9,7.1-3.1,7.4v0.1h-3.6h-3.9v-0.1c0.1-0.3,1.1-2.5,7.5-17.1l9.4-21.7h1l9.2,21.8
	c6.2,14.6,7.1,16.7,7.2,17.1v0.1h-3.8h-4.4v-0.1c-0.1-0.3-1-2.5-2.9-7.4H98.9z M109.3,241.3l0-0.1c-2.8-7.2-3.5-9.3-4-10.8h-0.1
	c-0.4,1.5-1.2,3.6-4.1,10.8l0,0.1H109.3z M127.3,237.6c-2,14.5-2.4,16.8-2.5,17.1v0.1h3.4h3.7v-0.1c0-0.4,0.3-2.9,1.3-11.6
	c0.4-3.3,0.7-6.3,0.9-9.4h0.1c1.2,2.9,2.6,5.5,4,8.2c1.5,2.7,3.9,6.9,7.2,12.3h0.9c3.2-5.3,5.7-9.5,7.1-12.1c1.5-2.7,2.7-5,4.2-8.3
	h0.1c0.1,3,0.4,5.9,0.8,9.3c1,8.8,1.4,11.4,1.4,11.7v0.1h3.9h3.6v-0.1c0-0.3-0.4-2.6-2.3-17.1l-2.8-21.5h-0.9
	c-12.4,20.9-13.8,23.3-15.2,26.2h-0.1c-1.5-3-2.8-5.4-14.9-26.2h-0.9L127.3,237.6z M172.6,237.6v17.1v0.1h10.6h9v-6.3h-0.1h-3.6
	h-8.5c0-0.3,0-0.5,0-0.7v-9.4h6.6h4h0.1v-3.2v-3h-0.1h-4.1h-6.5v-9.6h6.2h5.6h0.1v-6.2h-9.3h-9.9v0.1v16.1V237.6z M198.2,232.7v-16
	v-0.1c0.7-0.1,1.9-0.2,3-0.2c1.1-0.1,3.1-0.1,4.2-0.1c2.9,0,5.3,0.3,7.5,0.9c2.9,0.8,7.3,3.5,7.3,10.3c0,4.7-2.4,7.6-4.1,8.8
	c-0.9,0.7-2,1.4-2.8,1.7v0.1c0.3,0.5,1,1.4,8.9,12.5c1.1,1.5,2.6,3.7,2.9,4v0.1H221h-3h-1.3c-2.8-4.2-6.1-9.3-10.3-15.3h-1.2v1.9
	v13.3v0.1h-3.5h-3.5v-0.1v-17.1V232.7z M213,228.1c0-3.6-2.4-5.6-6-5.6c-0.8,0-1.4,0.1-1.8,0.1v11.6c0.3,0,0.8,0,1.3,0
	c1.4,0,2.7-0.4,3.6-1C211.5,232.6,213,230.9,213,228.1L213,228.1z M231.7,216.5H228v0.2v16v4.9v17.1v0.1h3.8h3.6v-0.1v-17.1v-4.9
	v-16.1v-0.1H231.7z M269,223.3c0.1-2.7,0.2-4.6,0.2-6.7c-0.8-0.2-2-0.4-3.1-0.5c-1-0.1-2-0.2-3.5-0.2c-13.7,0-22.1,8.2-22.1,19.6
	c0,12.3,9.1,19.9,20.7,19.9c1.6,0,2.9-0.1,4.6-0.3c1.1-0.2,2.4-0.5,3.2-0.7c0-1.4-0.2-5.1-0.2-6.5h-0.1c-0.8,0.3-1.5,0.4-2.2,0.5
	c-1.4,0.2-2.8,0.3-4.5,0.3c-8.1,0-13.5-5.3-13.5-13.2c0-7.9,5.6-13,14.3-13c1.5,0,2.8,0.1,3.9,0.3c0.8,0.1,1.4,0.3,2,0.4H269z
	 M281.8,247.3c-2,4.9-2.9,7.1-3.1,7.4v0.1h-3.6h-3.9v-0.1c0.1-0.3,1.1-2.5,7.5-17.1l9.4-21.7h1l9.2,21.8c6.2,14.6,7.1,16.7,7.2,17.1
	v0.1h-3.8h-4.4v-0.1c-0.1-0.3-1-2.5-2.9-7.4H281.8z M292.2,241.3l0-0.1c-2.8-7.2-3.5-9.3-4-10.8h-0.1c-0.4,1.5-1.2,3.6-4.1,10.8
	l0,0.1H292.2z M341.1,232.7v-16.1v-0.1h-3.2h-3.6v0.1V232c0,4.4,0,6,0,8.3h-0.1c-2.3-2.5-4.3-4.5-6.4-6.7
	c-3.3-3.4-8.6-8.6-17.6-17.5h-0.9v21.5v17.1v0.1h3.2h3.6v-0.1v-16.2c0-3.8,0-5.3-0.1-7.3h0.1c2.8,3.1,4.5,4.7,6.9,7.1
	c3.3,3.4,8.5,8.5,17.1,17h0.9V232.7z M110,311.9c0-4.3-2-7-5-9.8c-2-1.9-3.7-3.1-4.8-4.3c-1-1.1-1.7-2.2-1.7-3.8
	c0-2.6,2.3-4.3,5.4-4.3c0.8,0,1.6,0.1,2.2,0.2c0.6,0.1,1.3,0.3,1.8,0.5h0.1c0.1-3.3,0.1-4.2,0.2-6.5c-1.2-0.4-3.2-0.6-5-0.6
	c-8.6,0-12.4,5.3-12.4,10.8c0,4,1.9,6.7,4.3,9.1c1.2,1.2,2.5,2.4,4.1,3.7c1.9,1.6,2.8,3,2.8,4.7c0,2.9-2.3,4.4-5.2,4.4
	c-1.6,0-3-0.2-4.1-0.6c-0.7-0.2-1.3-0.4-1.9-0.7h-0.1c-0.1,3.3-0.2,4.1-0.2,6.6c1.7,0.7,4.5,1.2,6.9,1.2
	C105.2,322.4,110,317.8,110,311.9L110,311.9z M153.6,302.5c0,11.1-8.4,19.9-19.9,19.9c-11.2,0-19.8-8.7-19.8-19.6
	c0-11.1,8.7-19.8,20.3-19.8C145.5,283,153.6,291.5,153.6,302.5L153.6,302.5z M146.1,302.7c0-7.2-5.2-12.9-12.2-12.9
	c-7.2,0-12.4,5.6-12.4,13c0,7.2,5.2,13,12.5,13C141.1,315.7,146.1,310,146.1,302.7L146.1,302.7z M185.9,290.3
	c0.1-2.7,0.2-4.6,0.2-6.7c-0.8-0.2-2-0.4-3.1-0.5c-1-0.1-2-0.2-3.5-0.2c-13.7,0-22.1,8.2-22.1,19.6c0,12.3,9.1,19.8,20.7,19.8
	c1.6,0,2.9-0.1,4.6-0.3c1.1-0.1,2.4-0.4,3.2-0.7c0-1.4-0.2-5.1-0.2-6.5h-0.1c-0.8,0.3-1.5,0.4-2.2,0.6c-1.4,0.2-2.8,0.3-4.5,0.3
	c-8.1,0-13.5-5.3-13.5-13.2c0-7.9,5.5-13,14.3-13c1.5,0,2.8,0.1,3.9,0.3c0.8,0.1,1.4,0.3,2,0.4H185.9z M195.9,283.5h-3.7v0.2v16v4.9
	v17v0.2h3.8h3.5v-0.1v-17.1v-4.9v-16v-0.1H195.9z M207.1,304.6v17.1v0.1h10.6h9v-6.3h-0.1H223h-8.5c0-0.3,0-0.5,0-0.7v-9.4h6.6h4
	h0.1v-3.2v-3H225H221h-6.5v-9.6h6.2h5.6h0.1v-6.2H217h-9.9v0.1v16.1V304.6z M240.2,304.6v17.1v0.1h3.7h3.6v-0.1v-17.1v-14.9h7.2h3
	h0.2v-6.2h-12h-4.7h-11.6v6.2h0.2h3h7.2V304.6z M283,300.3c8-14.3,9-16.2,9.2-16.6v-0.1h-3.5h-4.3v0.1c-0.2,0.3-1.4,2.6-4.1,7.6
	c-1.6,2.8-3.1,5.5-4.1,7.7h-0.1c-1-2.2-2.6-5.1-4.1-7.8c-2.6-4.9-3.8-7.1-4-7.5v-0.1h-3.8h-4.5v0.1c0.2,0.5,1.3,2.5,9.3,16.6
	l3.4,6.1v0.7v14.6v0.1h3.8h3.6v-0.1v-14.8v-1L283,300.3z M327.9,289.7v-6.2h-9.3h-9.9v0.4v15.8v4.9v17v0.2h3.7h3.6v-0.2v-14v-1.2
	h6.6h3.9h0.2v-3.2v-3h-0.2h-4H316v-10.6h6.1h5.5H327.9z M371.6,302.5c0,11.1-8.4,19.9-19.9,19.9c-11.2,0-19.8-8.7-19.8-19.6
	c0-11.1,8.7-19.8,20.3-19.8C363.4,283,371.6,291.5,371.6,302.5L371.6,302.5z M364.1,302.7c0-7.2-5.2-12.9-12.2-12.9
	c-7.2,0-12.4,5.6-12.4,13c0,7.2,5.2,13,12.5,13C359.1,315.7,364.1,310,364.1,302.7L364.1,302.7z M376.8,299.7v-16v-0.1
	c0.7-0.1,1.9-0.1,3-0.2c1.1-0.1,3.1-0.1,4.2-0.1c2.9,0,5.3,0.3,7.5,1c2.9,0.8,7.3,3.5,7.3,10.3c0,4.7-2.4,7.6-4.1,8.8
	c-0.9,0.7-2,1.4-2.8,1.7v0.1c0.3,0.5,1,1.4,8.9,12.5c1.1,1.5,2.6,3.7,2.9,4v0.1h-4.1h-3h-1.3c-2.8-4.2-6.1-9.3-10.3-15.3h-1.2v1.9
	v13.3v0.1h-3.5h-3.5v-0.1v-17.1V299.7z M391.6,295.1c0-3.6-2.4-5.6-6-5.6c-0.8,0-1.4,0.1-1.8,0.1v11.6c0.3,0.1,0.8,0.1,1.3,0.1
	c1.4,0,2.7-0.4,3.6-1C390.1,299.6,391.6,297.9,391.6,295.1L391.6,295.1z M92.4,371.6c-2,14.5-2.4,16.7-2.5,17.1v0.1h3.4h3.7v-0.1
	c0-0.4,0.3-2.9,1.3-11.6c0.4-3.3,0.7-6.3,0.9-9.4h0.1c1.2,2.9,2.6,5.5,4,8.2c1.5,2.7,3.9,6.9,7.2,12.3h0.9c3.2-5.3,5.7-9.5,7.1-12.1
	c1.5-2.7,2.7-5,4.2-8.3h0.1c0.1,3,0.4,5.9,0.8,9.3c1,8.8,1.4,11.4,1.4,11.7v0.1h3.9h3.6v-0.1c0-0.3-0.4-2.6-2.3-17.1l-2.8-21.5h-0.9
	c-12.4,20.9-13.8,23.3-15.2,26.2h-0.1c-1.5-3-2.8-5.4-14.9-26.2h-0.9L92.4,371.6z M141.3,350.5h-3.7v0.2v16v4.9v17.1v0.1h3.8h3.6
	v-0.1v-17.1v-4.9v-16.1v-0.2H141.3z M178.6,357.3c0.1-2.7,0.2-4.6,0.2-6.6c-0.8-0.2-2-0.4-3.1-0.5c-1-0.1-2-0.2-3.4-0.2
	c-13.7,0-22.1,8.2-22.1,19.6c0,12.3,9.1,19.9,20.7,19.9c1.6,0,2.9-0.1,4.6-0.3c1.1-0.1,2.4-0.5,3.2-0.7c0-1.4-0.2-5.1-0.2-6.5h-0.1
	c-0.8,0.3-1.5,0.4-2.2,0.6c-1.4,0.2-2.8,0.3-4.5,0.3c-8.1,0-13.5-5.3-13.5-13.2c0-7.9,5.6-13,14.3-13c1.5,0,2.8,0.1,3.9,0.3
	c0.8,0.1,1.4,0.3,2,0.4H178.6z M184.9,366.7v-16v-0.1c0.7-0.1,1.9-0.1,3-0.2c1.1-0.1,3.1-0.1,4.2-0.1c2.9,0,5.3,0.3,7.5,0.9
	c2.9,0.8,7.3,3.5,7.3,10.3c0,4.7-2.4,7.6-4.1,8.8c-0.9,0.7-2,1.4-2.8,1.7v0.1c0.3,0.5,1,1.4,8.9,12.5c1.1,1.5,2.6,3.7,2.9,4v0.1
	h-4.1h-3h-1.3c-2.8-4.2-6.1-9.3-10.3-15.3h-1.2v2v13.3v0.1h-3.5h-3.5v-0.1v-17.1V366.7z M199.7,362.1c0-3.6-2.4-5.6-6-5.6
	c-0.8,0-1.4,0.1-1.8,0.1v11.6c0.3,0,0.8,0,1.3,0c1.4,0,2.7-0.4,3.6-1C198.2,366.6,199.7,364.9,199.7,362.1L199.7,362.1z
	 M251.8,369.5c0,11.1-8.4,19.9-19.9,19.9c-11.2,0-19.8-8.7-19.8-19.6c0-11.1,8.7-19.8,20.3-19.8C243.6,350,251.8,358.5,251.8,369.5
	L251.8,369.5z M244.3,369.7c0-7.2-5.2-12.9-12.2-12.9c-7.2,0-12.4,5.6-12.4,13c0,7.2,5.2,12.9,12.5,12.9S244.3,377,244.3,369.7
	L244.3,369.7z M279.8,378c0,3.9-2.3,7.1-5.2,8.8c-2.5,1.4-5.5,2.1-11.1,2.1c-1.3,0-2.3-0.1-3.7-0.1c-0.5,0-1.5-0.1-2.6-0.2v-0.1
	v-16.9v-4.9v-15.9v-0.1c0.7-0.1,1.7-0.1,2.7-0.2c1.3-0.1,3.5-0.1,5-0.1c2.2,0,4.7,0.4,6.6,0.9c2.2,0.7,6.7,2.9,6.7,9.3
	c0,3.8-2.3,7.1-5.9,8.2v0.1C276.2,369.6,279.8,372.9,279.8,378L279.8,378z M271.1,361.2c0-3.1-2.2-4.7-5.2-4.7c-0.6,0-1.5,0-1.9,0.1
	v9.4c0.5,0.1,1,0.1,1.3,0.1c0.8,0,1.6-0.1,2.5-0.4C269.4,365.3,271.1,363.8,271.1,361.2L271.1,361.2z M272.3,377.2
	c0-2.5-1.7-4.2-3.6-4.8c-0.9-0.3-2.1-0.4-3-0.4c-0.4,0-1.3,0-1.8,0v10.5c0,0,0,0.1,0.1,0.1c0.5,0.1,1.2,0.1,1.8,0.1
	c1.1,0,2.4-0.2,3.4-0.7C270.5,381.4,272.3,379.9,272.3,377.2L272.3,377.2z M289.3,350.5h-3.7v0.2v16v4.9v17.1v0.1h3.8h3.6v-0.1
	v-17.1v-4.9v-16.1v-0.2H289.3z M338.1,369.5c0,11.1-8.4,19.9-19.9,19.9c-11.2,0-19.8-8.7-19.8-19.6c0-11.1,8.7-19.8,20.3-19.8
	C330,350,338.1,358.5,338.1,369.5L338.1,369.5z M330.6,369.7c0-7.2-5.2-12.9-12.2-12.9c-7.2,0-12.4,5.6-12.4,13
	c0,7.2,5.2,12.9,12.5,12.9S330.6,377,330.6,369.7L330.6,369.7z M343.5,371.6v17v0.2h10.5h9v-6.3h-0.2h-1.4h-2.1H351
	c-0.2,0-0.2-0.1-0.2-0.3v-10.7v-4.9v-16v-0.2h-3.6h-3.8v0.2v16V371.6z M403.7,369.5c0,11.1-8.4,19.9-19.9,19.9
	c-11.2,0-19.8-8.7-19.8-19.6c0-11.1,8.7-19.8,20.3-19.8C395.6,350,403.7,358.5,403.7,369.5L403.7,369.5z M396.2,369.7
	c0-7.2-5.2-12.9-12.2-12.9c-7.2,0-12.4,5.6-12.4,13c0,7.2,5.2,12.9,12.5,12.9C391.3,382.7,396.2,377,396.2,369.7L396.2,369.7z
	 M428.5,389.4c4.6,0,7.9-0.6,10.4-1.6v-4.6v-3.5V371v-0.1h-3.7h-3.6v0.1v9.1v2.4c-1,0.2-2.2,0.3-3.3,0.3c-7.6,0-12.7-5.3-12.7-13.3
	c0-8.3,6.1-13.2,14.7-13.2c2.2,0,4,0.3,5.4,0.5c1,0.2,1.9,0.4,2.4,0.6h0.1c0.1-2.8,0.2-4.4,0.3-6.7c-1.2-0.3-2.5-0.5-3.8-0.7
	c-1.5-0.2-3.1-0.3-5-0.3c-13,0-22,8.1-22,19.7C407.7,381.9,416.9,389.4,428.5,389.4 M464.6,367.3c8-14.3,9-16.2,9.3-16.6v-0.1h-3.5
	h-4.3v0.1c-0.2,0.3-1.4,2.6-4.1,7.6c-1.6,2.8-3.1,5.5-4.1,7.7h-0.1c-1-2.2-2.6-5.1-4.1-7.8c-2.6-4.9-3.8-7.1-4-7.5v-0.1h-3.7h-4.5
	v0.1c0.2,0.5,1.3,2.5,9.3,16.6l3.4,6.1v0.7v14.6v0.1h3.8h3.6v-0.1v-14.8v-1L464.6,367.3z"/>
</svg>
